<svg width="147" height="147" viewBox="0 0 147 147" fill="none" xmlns="http://www.w3.org/2000/svg">
<path d="M66.2613 142.586L63.0897 141.318C61.6448 140.719 61.1867 139.626 61.68 138.287C62.2087 136.913 63.3363 136.419 64.7812 137.019L67.0013 137.9L68.1642 134.904L69.1157 135.292L66.2613 142.586ZM66.6842 138.71L64.7812 137.935C63.6887 137.477 63.0192 137.794 62.6668 138.64C62.3144 139.485 62.6315 140.155 63.724 140.613L65.6269 141.388L66.6842 138.71Z" fill="#FFFCF6"/>
<path d="M56.8174 138.358L53.6811 136.42C52.4125 135.645 52.0953 134.482 52.7296 133.425C53.223 132.65 53.9983 132.156 54.9145 132.438C54.2097 131.804 54.4211 131.17 54.7735 130.465C55.1259 129.76 55.6193 129.055 55.5136 128.386L56.5003 129.02C56.5707 129.443 56.0069 130.077 55.725 130.782C55.4431 131.487 55.2316 132.121 56.0774 132.685L58.2622 134.024L60.0242 131.205L60.9052 131.734L56.8174 138.358ZM55.9717 133.636C55.1612 133.108 54.3154 132.896 53.7163 133.848C53.3287 134.517 53.364 135.187 54.1745 135.716L56.3945 137.09L57.8041 134.764L55.9717 133.636Z" fill="#FFFCF6"/>
<path d="M47.9069 132.332L43.8896 128.737L44.4887 128.068L47.7307 130.957L49.3869 129.09L46.3563 126.411L46.9554 125.742L49.986 128.49L51.7832 126.482L48.5059 123.557L49.105 122.887L53.1575 126.517L47.9069 132.332Z" fill="#FFFCF6"/>
<path d="M40.6116 125.391L39.7659 124.263L43.4661 118.308L36.7705 120.351L35.9247 119.224L42.127 114.431L42.726 115.242L37.5458 119.224L44.2061 117.215L44.77 117.92L41.0698 123.805L46.25 119.823L46.8491 120.633L40.6116 125.391Z" fill="#FFFCF6"/>
<path d="M33.4222 114.961L32.9288 114.045L39.8358 110.31L40.3291 111.226L33.4222 114.961Z" fill="#FFFCF6"/>
<path d="M33.2822 102.133C35.1147 101.428 36.5243 102.133 37.1586 103.965C37.8634 105.868 37.4053 107.313 35.4319 108.018L30.7449 109.745L30.3925 108.758L35.0795 107.031C36.3834 106.573 36.8062 105.516 36.3129 104.247C35.8547 103.014 34.868 102.591 33.5994 103.084L28.9124 104.811L28.56 103.824L33.2822 102.133Z" fill="#FFFCF6"/>
<path d="M27.2582 98.9261L27.0468 97.5165L33.1782 94.0632L26.3068 92.6184L26.0954 91.2089L33.8477 90.0108L33.9887 90.9975L27.5754 91.9841L34.3763 93.4289L34.482 94.3098L28.4211 97.6927L34.8344 96.706L34.9754 97.6927L27.2582 98.9261Z" fill="#FFFCF6"/>
<path d="M26.1302 80.2492L26.6588 76.6194C26.8702 75.1393 27.7865 74.364 29.0199 74.5402C29.9361 74.6812 30.6762 75.2098 30.7819 76.1613C31.099 75.2803 31.7686 75.1745 32.5439 75.245C33.3192 75.3155 34.1649 75.4565 34.7288 75.104L34.5526 76.267C34.1649 76.5137 33.3897 76.2317 32.5791 76.267C31.8039 76.267 31.1343 76.3727 30.9933 77.3594L30.6409 79.8968L33.9535 80.3901L33.8125 81.4473L26.1302 80.2492ZM30.1476 77.5709C30.2885 76.5842 30.1476 75.7384 29.0199 75.5974C28.2798 75.4917 27.6455 75.8441 27.5045 76.7604L27.1169 79.3329L29.8304 79.7206L30.1476 77.5709Z" fill="#FFFCF6"/>
<path d="M28.9813 66.402C29.7918 64.041 32.0471 63.4772 34.091 64.182C36.0996 64.8515 37.5797 66.6839 36.7692 69.0449C35.9587 71.4059 33.7033 71.9698 31.6595 71.265C29.6156 70.6307 28.1708 68.763 28.9813 66.402ZM35.8882 68.7983C36.4872 67.0011 35.1834 65.6972 33.7033 65.2039C32.2233 64.7105 30.3908 64.922 29.7918 66.7192C29.1927 68.5163 30.4966 69.8202 31.9766 70.3135C33.4567 70.8069 35.2891 70.5954 35.8882 68.7983Z" fill="#FFFCF6"/>
<path d="M33.8426 55.7602C35.076 53.6106 37.437 53.5049 39.2694 54.5621C41.1018 55.6193 42.1943 57.6984 40.9256 59.8832C39.657 62.068 37.3313 62.1385 35.4988 61.0813C33.6664 59.9537 32.574 57.8746 33.8426 55.7602ZM40.1856 59.4251C41.1371 57.7689 40.1151 56.2536 38.7761 55.4783C37.4017 54.6678 35.6045 54.5621 34.6178 56.1831C33.6664 57.8393 34.6883 59.3546 36.0274 60.1299C37.4017 60.9404 39.1989 61.0461 40.1856 59.4251Z" fill="#FFFCF6"/>
<path d="M38.6747 48.7468L39.6262 47.6544L46.1454 50.2269L42.9386 43.9896L43.8901 42.8972L49.7045 48.1478L49.035 48.8878L44.172 44.5182L47.3788 50.685L46.7797 51.3545L40.2957 48.8173L45.1587 53.187L44.4891 53.927L38.6747 48.7468Z" fill="#FFFCF6"/>
<path d="M52.7007 38.6699C51.9255 37.8241 51.0445 37.9298 50.1987 38.5641C49.5292 39.0927 48.9653 39.868 49.5997 40.7137C50.1635 41.489 51.2911 40.8547 52.454 40.3261C53.6169 39.7975 54.8856 39.3746 55.8018 40.6433C56.7885 41.9823 55.9075 43.4976 54.7798 44.3434C53.3703 45.4005 51.6788 45.612 50.5159 44.0967L51.3264 43.4976C52.1017 44.5548 53.3703 44.3434 54.2865 43.6386C55.0618 43.0748 55.6961 42.229 54.9913 41.3128C54.357 40.4671 53.2293 41.0309 52.0664 41.5595C50.9035 42.0881 49.6701 42.5462 48.8244 41.4185C47.8377 40.1499 48.5777 38.7051 49.7054 37.8594C50.974 36.8727 52.4188 36.767 53.476 38.106L52.7007 38.6699Z" fill="#FFFCF6"/>
<path d="M59.3225 39.6572L60.3796 39.0933L60.9434 40.1505L59.8863 40.7143L59.3225 39.6572Z" fill="#FFFCF6"/>
<path d="M66.8949 28.9793L69.6436 28.204C70.3132 28.0278 71.1942 27.7811 71.6875 27.9221C72.2514 28.063 72.8152 28.4859 73.0266 29.2612C73.2733 30.0717 72.9914 30.7765 72.3571 31.2699C73.3438 31.1994 74.0486 31.7633 74.2953 32.7148C74.6124 33.8072 74.0839 35.1111 72.6038 35.534L68.974 36.5559L66.8949 28.9793ZM69.7493 35.3578L72.2866 34.653C73.1676 34.4063 73.5552 33.7367 73.3438 32.891C73.0619 31.9042 72.1809 31.869 71.3351 32.0804L69.0445 32.75L69.7493 35.3578ZM68.7978 31.9395L70.8065 31.4109C71.9694 31.0937 72.2866 30.5651 72.0752 29.7898C71.7932 28.7326 71.018 28.8031 70.137 29.0498L68.1283 29.5784L68.7978 31.9395Z" fill="#FFFCF6"/>
<path d="M79.5096 26.3011L80.6725 26.1954L84.4432 33.7015L83.2803 33.8072L82.2231 31.5519L78.9457 31.869L78.2762 34.3006L77.1837 34.4063L79.5096 26.3011ZM79.1572 30.9528L81.8002 30.7061L80.1439 27.2174L79.1572 30.9528Z" fill="#FFFCF6"/>
<path d="M87.7203 25.9107L88.8127 26.0164L92.372 32.6769L92.9006 26.3688L93.8874 26.4393L93.253 34.2627L92.1253 34.1922L88.5661 27.6022L88.0375 33.8398L87.0507 33.7693L87.7203 25.9107Z" fill="#FFFCF6"/>
<path d="M98.855 27.3221L99.8417 27.6041L98.8197 31.3748L103.683 28.626L104.952 28.9784L100.934 31.1634L103.013 36.5552L101.745 36.2028L100.053 31.6215L98.4673 32.432L97.7273 35.0751L96.7405 34.7931L98.855 27.3221Z" fill="#FFFCF6"/>
<path d="M114.226 33.0307L115.107 33.5593L113.345 36.449L116.869 38.5634L118.631 35.6737L119.512 36.2023L115.425 42.8979L114.544 42.3693L116.411 39.3034L112.887 37.189L111.019 40.2549L110.138 39.7263L114.226 33.0307Z" fill="#FFFCF6"/>
<path d="M126.203 41.3468C128.036 43.0383 127.648 45.3288 126.203 46.9146C124.758 48.5003 122.538 49.0994 120.671 47.4432C118.803 45.7869 119.226 43.4612 120.671 41.8754C122.115 40.2896 124.335 39.6906 126.203 41.3468ZM121.27 46.7736C122.679 48.0422 124.406 47.3727 125.428 46.2098C126.45 45.0469 127.014 43.285 125.604 42.0164C124.194 40.7478 122.468 41.4173 121.446 42.5802C120.424 43.7431 119.86 45.505 121.27 46.7736Z" fill="#FFFCF6"/>
<path d="M132.228 49.3474L130.643 47.2683L131.312 46.7397L135.153 51.7084L134.484 52.237L132.898 50.1579L127.401 54.3866L126.766 53.5409L132.228 49.3474Z" fill="#FFFCF6"/>
<path d="M137.304 55.1244L139.877 59.8819L139.101 60.3048L137.022 56.4636L134.837 57.6617L136.775 61.221L136 61.6439L134.062 58.0846L131.701 59.3885L133.815 63.2649L133.04 63.6878L130.432 58.8951L137.304 55.1244Z" fill="#FFFCF6"/>
<path d="M141.634 63.9698L141.986 64.9565L135.432 67.2823L136.806 71.194L135.96 71.4759L134.234 66.5775L141.634 63.9698Z" fill="#FFFCF6"/>
<path d="M71.7432 83.3903C70.6299 83.2392 69.9016 82.1447 70.192 81.0593V81.0593C70.4631 80.0463 71.5618 79.502 72.5321 79.9001L85.632 85.2753L71.7432 83.3903Z" fill="#FCD043"/>
<path d="M87.503 71.3942C87.6533 70.2767 88.7507 69.5458 89.8397 69.838V69.838C90.8561 70.1108 91.4025 71.2143 91.0031 72.1879L85.6368 85.271L87.503 71.3942Z" fill="#FCD043"/>
<path d="M77.1967 74.097C76.5143 73.2012 76.772 71.9108 77.7454 71.349V71.349C78.654 70.8246 79.8176 71.2186 80.2234 72.188L85.6886 85.2437L77.1967 74.097Z" fill="#FCD043"/>
<path d="M96.8291 76.7465C97.724 76.0646 99.0152 76.325 99.5789 77.3011V77.3011C100.105 78.2121 99.713 79.3769 98.7441 79.7817L85.69 85.2353L96.8291 76.7465Z" fill="#FCD043"/>
<path d="M99.5146 87.1546C100.628 87.3057 101.356 88.4002 101.066 89.4856V89.4856C100.795 90.4986 99.696 91.0429 98.7257 90.6448L85.6257 85.2696L99.5146 87.1546Z" fill="#FCD043"/>
<path d="M83.7626 99.1507C83.6123 100.268 82.515 100.999 81.426 100.707V100.707C80.4096 100.434 79.8632 99.3306 80.2625 98.3571L85.6288 85.2739L83.7626 99.1507Z" fill="#FCD043"/>
<path d="M94.1783 96.3874C94.8607 97.2831 94.603 98.5736 93.6295 99.1354V99.1354C92.721 99.6598 91.5573 99.2658 91.1515 98.2964L85.6863 85.2407L94.1783 96.3874Z" fill="#FCD043"/>
<path d="M74.5457 93.732C73.6509 94.4139 72.3597 94.1535 71.796 93.1774V93.1774C71.2699 92.2664 71.6619 91.1016 72.6308 90.6968L85.6848 85.2432L74.5457 93.732Z" fill="#FCD043"/>
</svg>
