<svg width="183" height="184" viewBox="0 0 183 184" fill="none" xmlns="http://www.w3.org/2000/svg">
<path d="M5.33025 82.5744L6.91596 78.6101C7.66476 76.8042 9.03023 76.2316 10.704 76.8482C12.4219 77.5089 13.0385 78.9185 12.2897 80.7244L11.1885 83.4994L14.9326 84.9529L14.4481 86.1422L5.33025 82.5744ZM10.1755 83.103L11.1445 80.7244C11.7171 79.3589 11.3207 78.522 10.2636 78.0816C9.20642 77.6411 8.36952 78.0375 7.7969 79.403L6.82786 81.7815L10.1755 83.103Z" fill="#1B3B36"/>
<path d="M5.33025 82.5744L6.91596 78.6101C7.66476 76.8042 9.03023 76.2316 10.704 76.8482C12.4219 77.5089 13.0385 78.9185 12.2897 80.7244L11.1885 83.4994L14.9326 84.9529L14.4481 86.1422L5.33025 82.5744ZM10.1755 83.103L11.1445 80.7244C11.7171 79.3589 11.3207 78.522 10.2636 78.0816C9.20642 77.6411 8.36952 78.0375 7.7969 79.403L6.82786 81.7815L10.1755 83.103Z" fill="black" fill-opacity="0.2"/>
<path d="M10.6173 70.7716L13.0399 66.8514C14.0089 65.2657 15.4625 64.8692 16.7839 65.6621C17.753 66.2788 18.3696 67.2478 18.0172 68.393C18.8101 67.5121 19.6029 67.7764 20.4839 68.2168C21.3648 68.6573 22.2458 69.274 23.0827 69.1418L22.2898 70.3752C21.7613 70.4632 20.9684 69.7585 20.0875 69.4061C19.2065 69.0537 18.4137 68.7894 17.7089 69.8466L16.0351 72.5775L19.5589 74.7799L18.8982 75.8811L10.6173 70.7716ZM16.5196 69.7144C17.1803 68.7014 17.4446 67.6442 16.2553 66.8954C15.4184 66.4109 14.5815 66.4549 13.9208 67.468L12.203 70.243L15.1101 72.0049L16.5196 69.7144Z" fill="#1B3B36"/>
<path d="M10.6173 70.7716L13.0399 66.8514C14.0089 65.2657 15.4625 64.8692 16.7839 65.6621C17.753 66.2788 18.3696 67.2478 18.0172 68.393C18.8101 67.5121 19.6029 67.7764 20.4839 68.2168C21.3648 68.6573 22.2458 69.274 23.0827 69.1418L22.2898 70.3752C21.7613 70.4632 20.9684 69.7585 20.0875 69.4061C19.2065 69.0537 18.4137 68.7894 17.7089 69.8466L16.0351 72.5775L19.5589 74.7799L18.8982 75.8811L10.6173 70.7716ZM16.5196 69.7144C17.1803 68.7014 17.4446 67.6442 16.2553 66.8954C15.4184 66.4109 14.5815 66.4549 13.9208 67.468L12.203 70.243L15.1101 72.0049L16.5196 69.7144Z" fill="black" fill-opacity="0.2"/>
<path d="M18.1476 59.6266L22.6404 54.6052L23.4773 55.354L19.8654 59.4064L22.1999 61.4766L25.5475 57.6885L26.3844 58.4373L22.9487 62.2254L25.4594 64.4718L29.1154 60.3754L29.9523 61.1242L25.4154 66.1896L18.1476 59.6266Z" fill="#1B3B36"/>
<path d="M18.1476 59.6266L22.6404 54.6052L23.4773 55.354L19.8654 59.4064L22.1999 61.4766L25.5475 57.6885L26.3844 58.4373L22.9487 62.2254L25.4594 64.4718L29.1154 60.3754L29.9523 61.1242L25.4154 66.1896L18.1476 59.6266Z" fill="black" fill-opacity="0.2"/>
<path d="M26.8234 50.5096L28.2329 49.4524L35.677 54.0774L33.1222 45.7084L34.5317 44.6513L40.5222 52.4036L39.5091 53.1524L34.5317 46.6775L37.0424 55.0024L36.1615 55.7072L28.8056 51.0822L33.7829 57.5572L32.7698 58.306L26.8234 50.5096Z" fill="#1B3B36"/>
<path d="M26.8234 50.5096L28.2329 49.4524L35.677 54.0774L33.1222 45.7084L34.5317 44.6513L40.5222 52.4036L39.5091 53.1524L34.5317 46.6775L37.0424 55.0024L36.1615 55.7072L28.8056 51.0822L33.7829 57.5572L32.7698 58.306L26.8234 50.5096Z" fill="black" fill-opacity="0.2"/>
<path d="M39.8649 41.5257L41.0102 40.909L45.6792 49.5423L44.534 50.159L39.8649 41.5257Z" fill="#1B3B36"/>
<path d="M39.8649 41.5257L41.0102 40.909L45.6792 49.5423L44.534 50.159L39.8649 41.5257Z" fill="black" fill-opacity="0.2"/>
<path d="M55.8956 41.3496C56.7765 43.6401 55.8956 45.402 53.6051 46.1948C51.2266 47.0758 49.4206 46.5032 48.5397 44.0365L46.3814 38.1782L47.6147 37.7377L49.773 43.596C50.3456 45.2258 51.667 45.7544 53.2528 45.1377C54.7944 44.5651 55.323 43.3317 54.7063 41.746L52.548 35.8877L53.7813 35.4473L55.8956 41.3496Z" fill="#1B3B36"/>
<path d="M55.8956 41.3496C56.7765 43.6401 55.8956 45.402 53.6051 46.1948C51.2266 47.0758 49.4206 46.5032 48.5397 44.0365L46.3814 38.1782L47.6147 37.7377L49.773 43.596C50.3456 45.2258 51.667 45.7544 53.2528 45.1377C54.7944 44.5651 55.323 43.3317 54.7063 41.746L52.548 35.8877L53.7813 35.4473L55.8956 41.3496Z" fill="black" fill-opacity="0.2"/>
<path d="M59.9047 33.8148L61.6665 33.5505L65.9832 41.2148L67.7891 32.6256L69.551 32.3613L71.0486 42.0517L69.8153 42.2279L68.582 34.2113L66.776 42.7124L65.6749 42.8445L61.4463 35.2684L62.6796 43.285L61.4463 43.4612L59.9047 33.8148Z" fill="#1B3B36"/>
<path d="M59.9047 33.8148L61.6665 33.5505L65.9832 41.2148L67.7891 32.6256L69.551 32.3613L71.0486 42.0517L69.8153 42.2279L68.582 34.2113L66.776 42.7124L65.6749 42.8445L61.4463 35.2684L62.6796 43.285L61.4463 43.4612L59.9047 33.8148Z" fill="black" fill-opacity="0.2"/>
<path d="M83.2494 32.4061L87.7863 33.0668C89.6363 33.3311 90.6053 34.4763 90.3851 36.018C90.2089 37.1632 89.5482 38.0882 88.3589 38.2203C89.4601 38.6168 89.5922 39.4537 89.5041 40.4227C89.4161 41.3918 89.2399 42.4489 89.6803 43.1536L88.2268 42.9334C87.9184 42.4489 88.2708 41.4799 88.2268 40.4668C88.2268 39.4977 88.0946 38.6608 86.8613 38.4846L83.6899 38.0442L83.0732 42.1846L81.7518 42.0084L83.2494 32.4061ZM86.597 37.4275C87.8303 37.6037 88.8875 37.4275 89.0637 36.018C89.1958 35.093 88.7553 34.3001 87.6101 34.1239L84.3947 33.6394L83.9101 37.0311L86.597 37.4275Z" fill="#1B3B36"/>
<path d="M83.2494 32.4061L87.7863 33.0668C89.6363 33.3311 90.6053 34.4763 90.3851 36.018C90.2089 37.1632 89.5482 38.0882 88.3589 38.2203C89.4601 38.6168 89.5922 39.4537 89.5041 40.4227C89.4161 41.3918 89.2399 42.4489 89.6803 43.1536L88.2268 42.9334C87.9184 42.4489 88.2708 41.4799 88.2268 40.4668C88.2268 39.4977 88.0946 38.6608 86.8613 38.4846L83.6899 38.0442L83.0732 42.1846L81.7518 42.0084L83.2494 32.4061ZM86.597 37.4275C87.8303 37.6037 88.8875 37.4275 89.0637 36.018C89.1958 35.093 88.7553 34.3001 87.6101 34.1239L84.3947 33.6394L83.9101 37.0311L86.597 37.4275Z" fill="black" fill-opacity="0.2"/>
<path d="M100.56 35.9737C103.511 36.9868 104.216 39.8058 103.335 42.3606C102.498 44.8713 100.208 46.7213 97.2564 45.7082C94.3052 44.6951 93.6005 41.8761 94.4814 39.3213C95.2743 36.7666 97.6088 34.9606 100.56 35.9737ZM97.5647 44.607C99.8112 45.3558 101.441 43.726 102.058 41.876C102.674 40.0261 102.41 37.7356 100.164 36.9868C97.9171 36.238 96.2874 37.8677 95.6707 39.7177C95.054 41.5677 95.3183 43.8582 97.5647 44.607Z" fill="#1B3B36"/>
<path d="M100.56 35.9737C103.511 36.9868 104.216 39.8058 103.335 42.3606C102.498 44.8713 100.208 46.7213 97.2564 45.7082C94.3052 44.6951 93.6005 41.8761 94.4814 39.3213C95.2743 36.7666 97.6088 34.9606 100.56 35.9737ZM97.5647 44.607C99.8112 45.3558 101.441 43.726 102.058 41.876C102.674 40.0261 102.41 37.7356 100.164 36.9868C97.9171 36.238 96.2874 37.8677 95.6707 39.7177C95.054 41.5677 95.3183 43.8582 97.5647 44.607Z" fill="black" fill-opacity="0.2"/>
<path d="M113.863 42.0523C116.549 43.5939 116.682 46.5451 115.36 48.8356C114.039 51.126 111.44 52.4915 108.709 50.9058C105.978 49.3201 105.89 46.413 107.211 44.1225C108.621 41.832 111.22 40.4666 113.863 42.0523ZM109.282 49.9808C111.352 51.1701 113.246 49.8927 114.215 48.2189C115.228 46.501 115.36 44.2546 113.334 43.0213C111.264 41.832 109.37 43.1094 108.401 44.7832C107.388 46.501 107.255 48.7475 109.282 49.9808Z" fill="#1B3B36"/>
<path d="M113.863 42.0523C116.549 43.5939 116.682 46.5451 115.36 48.8356C114.039 51.126 111.44 52.4915 108.709 50.9058C105.978 49.3201 105.89 46.413 107.211 44.1225C108.621 41.832 111.22 40.4666 113.863 42.0523ZM109.282 49.9808C111.352 51.1701 113.246 49.8927 114.215 48.2189C115.228 46.501 115.36 44.2546 113.334 43.0213C111.264 41.832 109.37 43.1094 108.401 44.7832C107.388 46.501 107.255 48.7475 109.282 49.9808Z" fill="black" fill-opacity="0.2"/>
<path d="M122.628 48.0886L123.994 49.2779L120.778 57.4266L128.575 53.4183L129.94 54.6076L123.377 61.8754L122.452 61.0385L127.914 54.96L120.206 58.9683L119.369 58.2195L122.54 50.1148L117.078 56.1933L116.153 55.3564L122.628 48.0886Z" fill="#1B3B36"/>
<path d="M122.628 48.0886L123.994 49.2779L120.778 57.4266L128.575 53.4183L129.94 54.6076L123.377 61.8754L122.452 61.0385L127.914 54.96L120.206 58.9683L119.369 58.2195L122.54 50.1148L117.078 56.1933L116.153 55.3564L122.628 48.0886Z" fill="black" fill-opacity="0.2"/>
<path d="M135.226 65.6189C136.283 64.6499 136.151 63.5487 135.358 62.4916C134.698 61.6547 133.729 60.9499 132.671 61.7428C131.702 62.4475 132.495 63.857 133.156 65.3106C133.817 66.7641 134.345 68.3498 132.76 69.4951C131.086 70.7284 129.192 69.6272 128.135 68.2177C126.813 66.4558 126.549 64.3415 128.443 62.888L129.192 63.9011C127.87 64.8701 128.135 66.4558 129.015 67.601C129.72 68.5701 130.777 69.3629 131.923 68.482C132.98 67.6891 132.275 66.2796 131.614 64.8261C130.954 63.3725 130.381 61.8308 131.79 60.7737C133.376 59.5404 135.182 60.4654 136.239 61.8749C137.473 63.4606 137.605 65.2665 135.931 66.588L135.226 65.6189Z" fill="#1B3B36"/>
<path d="M135.226 65.6189C136.283 64.6499 136.151 63.5487 135.358 62.4916C134.698 61.6547 133.729 60.9499 132.671 61.7428C131.702 62.4475 132.495 63.857 133.156 65.3106C133.817 66.7641 134.345 68.3498 132.76 69.4951C131.086 70.7284 129.192 69.6272 128.135 68.2177C126.813 66.4558 126.549 64.3415 128.443 62.888L129.192 63.9011C127.87 64.8701 128.135 66.4558 129.015 67.601C129.72 68.5701 130.777 69.3629 131.923 68.482C132.98 67.6891 132.275 66.2796 131.614 64.8261C130.954 63.3725 130.381 61.8308 131.79 60.7737C133.376 59.5404 135.182 60.4654 136.239 61.8749C137.473 63.4606 137.605 65.2665 135.931 66.588L135.226 65.6189Z" fill="black" fill-opacity="0.2"/>
<path d="M133.993 73.9L134.697 75.2214L133.376 75.9262L132.671 74.6048L133.993 73.9Z" fill="#1B3B36"/>
<path d="M133.993 73.9L134.697 75.2214L133.376 75.9262L132.671 74.6048L133.993 73.9Z" fill="black" fill-opacity="0.2"/>
<path d="M147.34 83.3697L148.309 86.8054C148.529 87.6423 148.838 88.7435 148.661 89.3601C148.485 90.0649 147.957 90.7697 146.988 91.0339C145.974 91.3423 145.094 90.9899 144.477 90.197C144.565 91.4304 143.86 92.3113 142.671 92.6196C141.305 93.0161 139.676 92.3554 139.147 90.5054L137.87 85.9685L147.34 83.3697ZM139.367 86.9375L140.248 90.109C140.557 91.2101 141.394 91.6947 142.451 91.4304C143.684 91.078 143.728 89.9768 143.464 88.9197L142.627 86.0566L139.367 86.9375ZM143.64 85.7483L144.301 88.259C144.697 89.7125 145.358 90.1089 146.327 89.8447C147.648 89.4923 147.56 88.5232 147.252 87.4221L146.591 84.9114L143.64 85.7483Z" fill="#1B3B36"/>
<path d="M147.34 83.3697L148.309 86.8054C148.529 87.6423 148.838 88.7435 148.661 89.3601C148.485 90.0649 147.957 90.7697 146.988 91.0339C145.974 91.3423 145.094 90.9899 144.477 90.197C144.565 91.4304 143.86 92.3113 142.671 92.6196C141.305 93.0161 139.676 92.3554 139.147 90.5054L137.87 85.9685L147.34 83.3697ZM139.367 86.9375L140.248 90.109C140.557 91.2101 141.394 91.6947 142.451 91.4304C143.684 91.078 143.728 89.9768 143.464 88.9197L142.627 86.0566L139.367 86.9375ZM143.64 85.7483L144.301 88.259C144.697 89.7125 145.358 90.1089 146.327 89.8447C147.648 89.4923 147.56 88.5232 147.252 87.4221L146.591 84.9114L143.64 85.7483Z" fill="black" fill-opacity="0.2"/>
<path d="M150.684 99.1379L150.816 100.591L141.434 105.304L141.302 103.851L144.121 102.53L143.725 98.4331L140.686 97.5962L140.553 96.2307L150.684 99.1379ZM144.87 98.6974L145.178 102.001L149.539 99.9307L144.87 98.6974Z" fill="#1B3B36"/>
<path d="M150.684 99.1379L150.816 100.591L141.434 105.304L141.302 103.851L144.121 102.53L143.725 98.4331L140.686 97.5962L140.553 96.2307L150.684 99.1379ZM144.87 98.6974L145.178 102.001L149.539 99.9307L144.87 98.6974Z" fill="black" fill-opacity="0.2"/>
<path d="M151.17 109.4L151.038 110.766L142.713 115.215L150.598 115.875L150.51 117.109L140.731 116.316L140.819 114.906L149.056 110.458L141.26 109.797L141.348 108.564L151.17 109.4Z" fill="#1B3B36"/>
<path d="M151.17 109.4L151.038 110.766L142.713 115.215L150.598 115.875L150.51 117.109L140.731 116.316L140.819 114.906L149.056 110.458L141.26 109.797L141.348 108.564L151.17 109.4Z" fill="black" fill-opacity="0.2"/>
<path d="M149.407 123.32L149.055 124.553L144.342 123.276L147.777 129.354L147.337 130.94L144.606 125.918L137.867 128.517L138.307 126.932L144.033 124.817L143.02 122.835L139.717 121.91L140.069 120.677L149.407 123.32Z" fill="#1B3B36"/>
<path d="M149.407 123.32L149.055 124.553L144.342 123.276L147.777 129.354L147.337 130.94L144.606 125.918L137.867 128.517L138.307 126.932L144.033 124.817L143.02 122.835L139.717 121.91L140.069 120.677L149.407 123.32Z" fill="black" fill-opacity="0.2"/>
<path d="M142.273 142.524L141.612 143.625L138 141.423L135.358 145.828L138.97 148.03L138.309 149.131L129.94 144.022L130.601 142.92L134.433 145.255L137.075 140.85L133.243 138.516L133.904 137.415L142.273 142.524Z" fill="#1B3B36"/>
<path d="M142.273 142.524L141.612 143.625L138 141.423L135.358 145.828L138.97 148.03L138.309 149.131L129.94 144.022L130.601 142.92L134.433 145.255L137.075 140.85L133.243 138.516L133.904 137.415L142.273 142.524Z" fill="black" fill-opacity="0.2"/>
<path d="M131.878 157.5C129.764 159.79 126.9 159.306 124.918 157.5C122.936 155.694 122.187 152.919 124.258 150.584C126.328 148.25 129.235 148.779 131.217 150.584C133.199 152.39 133.948 155.165 131.878 157.5ZM125.094 151.333C123.509 153.095 124.346 155.253 125.799 156.531C127.253 157.808 129.455 158.513 131.041 156.751C132.627 154.989 131.79 152.831 130.336 151.554C128.883 150.276 126.68 149.571 125.094 151.333Z" fill="#1B3B36"/>
<path d="M131.878 157.5C129.764 159.79 126.9 159.306 124.918 157.5C122.936 155.694 122.187 152.919 124.258 150.584C126.328 148.25 129.235 148.779 131.217 150.584C133.199 152.39 133.948 155.165 131.878 157.5ZM125.094 151.333C123.509 153.095 124.346 155.253 125.799 156.531C127.253 157.808 129.455 158.513 131.041 156.751C132.627 154.989 131.79 152.831 130.336 151.554C128.883 150.276 126.68 149.571 125.094 151.333Z" fill="black" fill-opacity="0.2"/>
<path d="M121.88 165.032L124.479 163.05L125.14 163.887L118.929 168.688L118.268 167.851L120.867 165.869L115.582 158.998L116.639 158.205L121.88 165.032Z" fill="#1B3B36"/>
<path d="M121.88 165.032L124.479 163.05L125.14 163.887L118.929 168.688L118.268 167.851L120.867 165.869L115.582 158.998L116.639 158.205L121.88 165.032Z" fill="black" fill-opacity="0.2"/>
<path d="M114.656 171.376L108.709 174.592L108.181 173.623L112.982 171.024L111.484 168.293L107.035 170.715L106.507 169.746L110.956 167.324L109.326 164.373L104.481 167.015L103.952 166.046L109.943 162.787L114.656 171.376Z" fill="#1B3B36"/>
<path d="M114.656 171.376L108.709 174.592L108.181 173.623L112.982 171.024L111.484 168.293L107.035 170.715L106.507 169.746L110.956 167.324L109.326 164.373L104.481 167.015L103.952 166.046L109.943 162.787L114.656 171.376Z" fill="black" fill-opacity="0.2"/>
<path d="M103.599 176.792L102.365 177.232L99.4583 169.04L94.569 170.757L94.2166 169.7L100.339 167.542L103.599 176.792Z" fill="#1B3B36"/>
<path d="M103.599 176.792L102.365 177.232L99.4583 169.04L94.569 170.757L94.2166 169.7L100.339 167.542L103.599 176.792Z" fill="black" fill-opacity="0.2"/>
<path d="M90.7219 89.9026C91.5821 88.7893 93.2245 88.6845 94.2194 89.6793V89.6793C95.1479 90.6079 95.05 92.1407 94.011 92.9437L80.0147 103.759L90.7219 89.9026Z" fill="#FCD043"/>
<path d="M93.8699 114.465C94.9831 115.325 95.088 116.968 94.0931 117.963V117.963C93.1646 118.891 91.6317 118.793 90.8288 117.754L80.0135 103.758L93.8699 114.465Z" fill="#FCD043"/>
<path d="M97.3772 101.611C98.7727 101.432 100.008 102.519 100.008 103.926V103.926C100.008 105.239 98.8551 106.254 97.5526 106.087L80.0082 103.838L97.3772 101.611Z" fill="#FCD043"/>
<path d="M82.2376 121.213C82.4166 122.608 81.3294 123.844 79.9224 123.844V123.844C78.6093 123.844 77.5946 122.691 77.7616 121.388L80.0109 103.844L82.2376 121.213Z" fill="#FCD043"/>
<path d="M69.3016 117.613C68.4413 118.726 66.7989 118.831 65.8041 117.836V117.836C64.8755 116.908 64.9734 115.375 66.0125 114.572L80.0087 103.757L69.3016 117.613Z" fill="#FCD043"/>
<path d="M66.1536 93.0506C65.0403 92.1903 64.9354 90.548 65.9303 89.5531V89.5531C66.8588 88.6246 68.3917 88.7224 69.1946 89.7615L80.0099 103.758L66.1536 93.0506Z" fill="#FCD043"/>
<path d="M62.6393 106.067C61.2438 106.246 60.0083 105.159 60.0083 103.752V103.752C60.0083 102.439 61.1614 101.424 62.4639 101.591L80.0083 103.84L62.6393 106.067Z" fill="#FCD043"/>
<path d="M77.7836 86.4708C77.6047 85.0753 78.6919 83.8398 80.0988 83.8398V83.8398C81.412 83.8398 82.4267 84.9929 82.2597 86.2954L80.0104 103.84L77.7836 86.4708Z" fill="#FCD043"/>
</svg>
